<svg width="151" height="23" viewBox="0 0 151 23" fill="none" xmlns="http://www.w3.org/2000/svg">
<path d="M126.756 11.5C126.756 18.5175 131.733 23 138.565 23C145.397 23 150.374 18.5175 150.374 11.5C150.374 4.48248 145.397 0 138.565 0C131.733 0 126.756 4.48248 126.756 11.5ZM131.764 11.5C131.764 7.41936 134.454 4.45159 138.565 4.45159C142.677 4.45159 145.366 7.41936 145.366 11.5C145.366 15.5806 142.677 18.5483 138.565 18.5483C134.454 18.5483 131.764 15.5806 131.764 11.5Z" fill="#E0EFF0"/>
<path d="M66.5813 11.5C66.5813 18.5175 71.5585 23 78.3904 23C85.2225 23 90.1995 18.5175 90.1995 11.5C90.1995 4.48248 85.2225 0 78.3904 0C71.5585 0 66.5813 4.48248 66.5813 11.5ZM71.5894 11.5C71.5894 7.41936 74.2788 4.45159 78.3904 4.45159C82.502 4.45159 85.1916 7.41936 85.1916 11.5C85.1916 15.5806 82.502 18.5483 78.3904 18.5483C74.2788 18.5483 71.5894 15.5806 71.5894 11.5Z" fill="#E0EFF0"/>
<path d="M49.9531 22.998H63.7099V18.5463H54.7758V0.000976562H49.9531V22.998Z" fill="#E0EFF0"/>
<path d="M22.6614 22.998H27.9787C29.9916 17.7891 31.9467 11.5606 33.9759 6.36937L40.1897 22.998H45.6305L36.109 0.000976562H32.1211L22.6614 22.998Z" fill="#E0EFF0"/>
<path d="M6.55747 22.8907H11.3705V14.1H13.9808C18.8429 14.1 22.5304 12.4357 22.5304 7.01891C22.5304 1.53669 18.5452 0.00292969 13.7524 0.00292969L2.34775 0.00292969L0.64502 4.31036H11.3705H12.8713C14.8293 4.31036 17.244 4.63677 17.244 7.01891C17.244 9.17258 15.4485 9.79254 13.6544 9.79254H11.3705H6.55747V22.8907Z" fill="#E0EFF0"/>
<path d="M124.741 22.998H119.424C117.411 17.7891 115.456 11.5606 113.426 6.36937L108.477 19.6135L103.528 6.36937C101.499 11.5606 99.544 17.7891 97.5312 22.998H92.2139L101.674 0.000976562H105.662L108.477 6.80218L111.293 0.000976562H115.281L124.741 22.998Z" fill="#E0EFF0"/>
</svg>
